<svg width="40" height="40" viewBox="0 0 40 40" fill="none" xmlns="http://www.w3.org/2000/svg">
<path d="M31.1081 32.1133C30.8937 29.8956 30.0625 27.7841 28.7102 26.0218C27.3579 24.2595 25.5396 22.9182 23.4645 22.1522C24.894 21.2688 25.9983 19.9388 26.6093 18.3645C27.2203 16.7902 27.3047 15.0577 26.8496 13.4306C26.3945 11.8034 25.4248 10.3707 24.088 9.35037C22.7513 8.33001 21.1206 7.77783 19.444 7.77783C17.7674 7.77783 16.1368 8.33001 14.8 9.35037C13.4632 10.3707 12.4935 11.8034 12.0384 13.4306C11.5833 15.0577 11.6677 16.7902 12.2787 18.3645C12.8898 19.9388 13.994 21.2688 15.4235 22.1522C13.3489 22.9186 11.5311 24.2601 10.1793 26.0223C8.82747 27.7845 7.99663 29.8959 7.7824 32.1133C7.76768 32.2678 7.78517 32.4237 7.83372 32.571C7.88228 32.7183 7.96083 32.8538 8.06435 32.9687C8.16787 33.0835 8.29407 33.1753 8.43484 33.2381C8.57562 33.301 8.72786 33.3334 8.88179 33.3334H30.0124C30.1658 33.3325 30.3174 33.2994 30.4574 33.2363C30.5975 33.1731 30.7229 33.0811 30.8258 32.9664C30.9286 32.8516 31.0066 32.7164 31.0548 32.5695C31.103 32.4227 31.1203 32.2673 31.1056 32.1133H31.1081ZM14.1328 25.3001C15.7016 24.2298 17.5523 23.6577 19.4465 23.6577C21.3407 23.6577 23.1914 24.2298 24.7602 25.3001C26.2894 26.3407 27.4864 27.8063 28.2062 29.5191C28.4212 30.0321 28.5912 30.5632 28.7143 31.1062H10.1787C10.3018 30.5632 10.4718 30.0321 10.6868 29.5191C11.4077 27.8069 12.6045 26.3417 14.1328 25.3001ZM21.5863 20.6315C20.3247 21.1742 18.9079 21.2234 17.6123 20.7697C16.3167 20.3159 15.2353 19.3916 14.579 18.1772C13.9226 16.9628 13.7386 15.5454 14.0626 14.2016C14.3867 12.8577 15.1957 11.6838 16.3317 10.909C17.4678 10.1341 18.8494 9.81379 20.2069 10.0106C21.5645 10.2074 22.8007 10.9072 23.6742 11.9734C24.5477 13.0396 24.996 14.3958 24.9315 15.7773C24.867 17.1588 24.2944 18.4665 23.3254 19.4452C22.8259 19.9517 22.2336 20.3555 21.5813 20.634L21.5863 20.6315Z" fill="#4C4C4C"/>
</svg>
